# xmcd
#
# Track frame offsets: 
#        150
#        10585
#        21280
#        33858
#        43495
#        61150
#        73693
#        84483
#        99496
#        129643
#        146856
#        164283
#        184801
#        199513
#        216491
#        227826
#        236923
#        251928
#        264342
#        284486
#
# Disc length: 3933 seconds
#
# Revision: 0
# Processed by: cddbd v1.5.2PL0 Copyright (c) Steve Scherf et al.
# Submitted via: ExactAudioCopy v1.1
#
DISCID=2d0f5b14
DTITLE=John Mayall and The Bluesbreakers - Primal Seed
DYEAR=2001
DGENRE=Blues
TTITLE0=Crawling Up A Hill (BBC 04-26-65)
TTITLE1=Crocodile Walk (BBC 04-26-65)
TTITLE2=Bye Bye Bird (BBC 04-26-65)
TTITLE3=I'm Your Witchdoctor
TTITLE4=Telephone Blues
TTITLE5=On Top Of The World
TTITLE6=Intro - Maudie (Flamingo Club 04-30-66)
TTITLE7=It Hurts To Be In Love (Flamingo Club 04-30-66)
TTITLE8=Have You Ever Loved A Woman (Flamingo Club 04-30-66)
TTITLE9=Bye Bye Bird (Flamingo Club 04-30-66)
TTITLE10=Hoochie Coochie Man (Flamingo Club 04-30-66)
TTITLE11=(They Call It) Stormy Monday (Flamingo Club 03-17-66)
TTITLE12=John Mayall and Eric Clapton - Lonely Years
TTITLE13=John Mayall and Eric Clapton - Bernard Jenkins
TTITLE14=On Top Of The World (BBC 03-14-66)
TTITLE15=Key To Love (BBC 03-14-66)
TTITLE16=Hideaway (BBC 02-09-66)
TTITLE17=Little Girl (BBC 02-09-66)
TTITLE18=Tears In My Eyes (BBC 02-09-66)
TTITLE19=Parchman Farm (BBC 10-25-65)
EXTD=
EXTT0=
EXTT1=
EXTT2=
EXTT3=
EXTT4=
EXTT5=
EXTT6=
EXTT7=
EXTT8=
EXTT9=
EXTT10=
EXTT11=
EXTT12=
EXTT13=
EXTT14=
EXTT15=
EXTT16=
EXTT17=
EXTT18=
EXTT19=
PLAYORDER=
